# xmcd
#
# Track frame offsets: 
#        150
#        15983
#        32119
#        50567
#        69417
#        81212
#        88484
#        120909
#        136764
#        149430
#        159555
#        171238
#        184086
#        196354
#        208384
#        223717
#        234328
#
# Disc length: 3214 seconds
#
# Revision: 7
# Processed by: cddbd v1.5.2PL0 Copyright (c) Steve Scherf et al.
# Submitted via: ExactAudioCopy v1.0b4
#
DISCID=f30c8c11
DTITLE=The Seatbelts - Cowboy Bebop OST 1
DYEAR=1998
DGENRE=Soundtrack, Anime
TTITLE0=Tank!
TTITLE1=Rush
TTITLE2=Spokey Dokey
TTITLE3=Bad Dog No Biscuits
TTITLE4=Cat Blues
TTITLE5=Cosmos
TTITLE6=Space Lion
TTITLE7=Waltz for Zizi
TTITLE8=Piano Black
TTITLE9=Pot City
TTITLE10=Too Good Too Bad
TTITLE11=Car24
TTITLE12=The Egg and I
TTITLE13=Felt Tip Pen
TTITLE14=Rain
TTITLE15=Digging My Potato
TTITLE16=Memory
EXTD=
EXTT0=
EXTT1=
EXTT2=
EXTT3=
EXTT4=
EXTT5=
EXTT6=
EXTT7=
EXTT8=
EXTT9=
EXTT10=
EXTT11=
EXTT12=
EXTT13=
EXTT14=
EXTT15=
EXTT16=
PLAYORDER=
